<svg width="80" height="20" viewBox="0 0 80 20" fill="none" xmlns="http://www.w3.org/2000/svg">
<g clip-path="url(#clip0_199_5861)">
<mask id="mask0_199_5861" style="mask-type:luminance" maskUnits="userSpaceOnUse" x="0" y="0" width="80" height="20">
<path d="M79.9298 0H0V20H79.9298V0Z" fill="white"/>
</mask>
<g mask="url(#mask0_199_5861)">
<mask id="mask1_199_5861" style="mask-type:luminance" maskUnits="userSpaceOnUse" x="0" y="0" width="22" height="20">
<path d="M21.0682 0H0V19.4385H21.0682V0Z" fill="white"/>
</mask>
<g mask="url(#mask1_199_5861)">
<path d="M10.53 0C9.08513 0.895671 7.71881 1.90885 6.44531 3.02894L6.52832 3.07298C7.94105 3.87286 9.28004 4.79303 10.53 5.82294C11.8025 4.77212 13.1689 3.83698 14.6125 3.02894C13.3397 1.90889 11.9741 0.89572 10.53 0Z" fill="#00498A"/>
<path d="M18.0787 6.44174L17.9552 6.50677C16.5846 7.2573 15.2833 8.12483 14.0664 9.0994C15.1663 10.2484 16.2044 11.4534 17.1762 12.7094C18.3937 11.7326 19.6949 10.8616 21.065 10.1062C20.1358 8.83385 19.1388 7.61063 18.0787 6.44174Z" fill="#059FFF"/>
<path d="M14.6138 3.02893C13.1702 3.83698 11.8038 4.77213 10.5312 5.82293L10.5802 5.86279C11.8063 6.8705 12.9706 7.94916 14.0667 9.0931C15.3197 8.08928 16.6627 7.19975 18.079 6.43544C16.9925 5.23411 15.8354 4.09667 14.6138 3.02893Z" fill="#0F7EC8"/>
<path d="M2.98385 6.44174C1.92474 7.60985 0.929993 8.83311 0.00390625 10.1062L0.216759 10.2216C1.5081 10.9519 2.73744 11.7839 3.89274 12.7094C4.86537 11.4533 5.90409 10.2484 7.00465 9.0994C5.7486 8.09565 4.40282 7.20613 2.98385 6.44174Z" fill="#059FFF"/>
<path d="M13.6457 15.8075C12.6722 14.5809 11.6334 13.406 10.5338 12.2878C9.41647 13.4195 8.36201 14.6099 7.375 15.8537C8.49204 16.9892 9.54646 18.1831 10.5338 19.43C11.5203 18.1832 12.574 16.9894 13.6904 15.8537L13.6457 15.8075Z" fill="#57BEFF"/>
<path d="M3.09932 6.50675C4.46971 7.25778 5.77092 8.12528 6.98815 9.09939C8.09807 7.9395 9.27877 6.84741 10.5236 5.82922C9.25299 4.7771 7.88876 3.83988 6.4475 3.02893C5.22703 4.09724 4.07069 5.23467 2.98438 6.43544L3.10784 6.50045" fill="#0F7EC8"/>
</g>
<path d="M34.7459 8.04108C34.7459 8.30459 34.8928 8.43634 35.1866 8.43634C35.2756 8.43634 35.3603 8.42317 35.4404 8.39682V9.78026C35.102 9.91202 34.7192 9.9779 34.2918 9.9779C33.5795 9.9779 33.0719 9.74513 32.7693 9.27959C32.1104 9.78905 31.367 10.0438 30.5389 10.0438C29.9067 10.0438 29.377 9.8681 28.9497 9.51676C28.5222 9.1654 28.3086 8.69108 28.3086 8.09377C28.3086 7.71608 28.3931 7.38668 28.5623 7.1056C28.7315 6.81574 28.9541 6.59614 29.2301 6.44682C29.515 6.2975 29.8088 6.1877 30.1115 6.11743C30.4232 6.04716 30.7482 6.01202 31.0864 6.01202C31.5672 6.01202 32.0302 6.06033 32.4755 6.15696V5.93297C32.4755 5.6958 32.3597 5.50696 32.1282 5.36642C31.9056 5.2171 31.5761 5.14243 31.1399 5.14243C30.4633 5.14243 29.7154 5.30493 28.8962 5.62993V3.7458C29.7687 3.46473 30.6013 3.32419 31.3937 3.32419C32.4889 3.32419 33.3213 3.54817 33.8911 3.99614C34.461 4.44411 34.7459 5.20391 34.7459 6.27554V8.04108ZM30.6457 7.90931C30.6457 8.08499 30.717 8.23431 30.8594 8.3573C31.0019 8.47148 31.1889 8.52857 31.4203 8.52857C31.8211 8.52857 32.1728 8.41877 32.4755 8.19919V7.34276C32.235 7.26371 31.9635 7.22419 31.6608 7.22419C30.9841 7.22419 30.6457 7.45256 30.6457 7.90931ZM39.4894 5.23465C39.4448 5.94614 39.3735 6.56979 39.2756 7.1056C39.1866 7.63263 39.0487 8.12891 38.8617 8.59445C38.6836 9.0512 38.4343 9.39817 38.1138 9.63533C37.8021 9.8725 37.4281 9.99108 36.9919 9.99108C36.6447 9.99108 36.2618 9.9208 35.8433 9.78026V8.00154C35.9769 8.05425 36.0971 8.0806 36.204 8.0806C36.3643 8.0806 36.5021 8.0323 36.618 7.93567C36.7337 7.83027 36.8316 7.66776 36.9118 7.44817C37.0008 7.22857 37.0721 7.00459 37.1254 6.7762C37.1789 6.53905 37.2234 6.22283 37.2591 5.82756C37.3035 5.42351 37.3347 5.06777 37.3525 4.76033C37.3703 4.44411 37.3926 4.03128 37.4192 3.52182H42.8949V9.84614H40.6245V5.23465H39.4894ZM50.3186 8.04108C50.3186 8.30459 50.4655 8.43634 50.7593 8.43634C50.8483 8.43634 50.9328 8.42317 51.013 8.39682V9.78026C50.6748 9.91202 50.2919 9.9779 49.8645 9.9779C49.1521 9.9779 48.6447 9.74513 48.342 9.27959C47.6831 9.78905 46.9396 10.0438 46.1116 10.0438C45.4794 10.0438 44.9497 9.8681 44.5222 9.51676C44.0949 9.1654 43.8811 8.69108 43.8811 8.09377C43.8811 7.71608 43.9658 7.38668 44.135 7.1056C44.3041 6.81574 44.5268 6.59614 44.8028 6.44682C45.0877 6.2975 45.3815 6.1877 45.6842 6.11743C45.9958 6.04716 46.3208 6.01202 46.6592 6.01202C47.1399 6.01202 47.6029 6.06033 48.0482 6.15696V5.93297C48.0482 5.6958 47.9325 5.50696 47.7009 5.36642C47.4783 5.2171 47.1488 5.14243 46.7127 5.14243C46.0358 5.14243 45.2879 5.30493 44.4689 5.62993V3.7458C45.3414 3.46473 46.1739 3.32419 46.9664 3.32419C48.0614 3.32419 48.894 3.54817 49.4638 3.99614C50.0337 4.44411 50.3186 5.20391 50.3186 6.27554V8.04108ZM46.2185 7.90931C46.2185 8.08499 46.2897 8.23431 46.4321 8.3573C46.5746 8.47148 46.7616 8.52857 46.993 8.52857C47.3937 8.52857 47.7455 8.41877 48.0482 8.19919V7.34276C47.8077 7.26371 47.5362 7.22419 47.2335 7.22419C46.5567 7.22419 46.2185 7.45256 46.2185 7.90931ZM58.6681 7.01337C58.6681 7.98837 58.3431 8.73939 57.6931 9.26642C57.0431 9.78465 56.2107 10.0438 55.1956 10.0438C54.1717 10.0438 53.3347 9.73634 52.6847 9.12148C52.0436 8.49783 51.7232 7.50965 51.7232 6.15696C51.7232 4.11911 52.3775 2.69614 53.6864 1.88803C54.2029 1.57182 54.7727 1.34783 55.3958 1.21608C56.0281 1.08432 56.5757 0.978916 57.0386 0.899862C57.5105 0.812023 57.8666 0.653916 58.1071 0.425537V2.4019C57.8044 2.67419 57.2968 2.85425 56.5846 2.9421C55.8811 3.02114 55.3692 3.13973 55.0487 3.29783C54.746 3.44716 54.5056 3.67554 54.3275 3.98297C54.1494 4.2904 54.0603 4.58466 54.0603 4.86574C54.5411 4.27722 55.1867 3.98297 55.9969 3.98297C56.7894 3.98297 57.4305 4.25088 57.9201 4.78668C58.4187 5.31371 58.6681 6.05594 58.6681 7.01337ZM54.1004 6.6181C54.0737 6.74108 54.0603 6.87283 54.0603 7.01337C54.0603 7.15391 54.0737 7.29007 54.1004 7.42182C54.1272 7.54479 54.1762 7.68094 54.2473 7.83027C54.3186 7.97959 54.4343 8.10256 54.5946 8.19919C54.7638 8.28702 54.964 8.33094 55.1956 8.33094C55.427 8.33094 55.6229 8.28702 55.7832 8.19919C55.9524 8.10256 56.0727 7.97959 56.1438 7.83027C56.215 7.68094 56.264 7.54479 56.2907 7.42182C56.3175 7.29007 56.3307 7.15391 56.3307 7.01337C56.3307 6.87283 56.3175 6.74108 56.2907 6.6181C56.264 6.48634 56.215 6.3458 56.1438 6.19648C56.0727 6.04716 55.9524 5.92857 55.7832 5.84074C55.6229 5.74411 55.427 5.6958 55.1956 5.6958C54.964 5.6958 54.7638 5.74411 54.5946 5.84074C54.4343 5.92857 54.3186 6.04716 54.2473 6.19648C54.1762 6.3458 54.1272 6.48634 54.1004 6.6181ZM62.6177 7.29007L63.9265 3.52182H66.2637L63.5792 10.5049C62.9561 12.1124 61.9766 12.9161 60.6411 12.9161C60.3206 12.9161 59.9287 12.859 59.4659 12.7448V10.9002C59.7686 10.9705 60.0578 11.0056 60.3339 11.0056C60.9215 11.0056 61.3667 10.6718 61.6694 10.0042L58.6511 3.52182H61.0551L62.6177 7.29007ZM69.3107 9.84614H67.0403V3.52182H72.0352V5.36642H69.3107V9.84614ZM78.8424 8.04108C78.8424 8.30459 78.9893 8.43634 79.2831 8.43634C79.3722 8.43634 79.4567 8.42317 79.5368 8.39682V9.78026C79.1986 9.91202 78.8157 9.9779 78.3883 9.9779C77.6759 9.9779 77.1685 9.74513 76.8658 9.27959C76.2069 9.78905 75.4634 10.0438 74.6355 10.0438C74.0033 10.0438 73.4735 9.8681 73.0461 9.51676C72.6188 9.1654 72.405 8.69108 72.405 8.09377C72.405 7.71608 72.4897 7.38668 72.6589 7.1056C72.8279 6.81574 73.0506 6.59614 73.3266 6.44682C73.6115 6.2975 73.9053 6.1877 74.208 6.11743C74.5196 6.04716 74.8446 6.01202 75.183 6.01202C75.6638 6.01202 76.1268 6.06033 76.572 6.15696V5.93297C76.572 5.6958 76.4561 5.50696 76.2247 5.36642C76.0022 5.2171 75.6727 5.14243 75.2365 5.14243C74.5597 5.14243 73.8118 5.30493 72.9927 5.62993V3.7458C73.8652 3.46473 74.6977 3.32419 75.4902 3.32419C76.5852 3.32419 77.4178 3.54817 77.9877 3.99614C78.5575 4.44411 78.8424 5.20391 78.8424 6.27554V8.04108ZM74.7423 7.90931C74.7423 8.08499 74.8135 8.23431 74.9559 8.3573C75.0985 8.47148 75.2854 8.52857 75.5169 8.52857C75.9175 8.52857 76.2691 8.41877 76.572 8.19919V7.34276C76.3315 7.26371 76.06 7.22419 75.7573 7.22419C75.0805 7.22419 74.7423 7.45256 74.7423 7.90931Z" fill="#131313"/>
<path d="M28.9682 19.8414H28.1133V18.2334H28.5407C28.9326 17.5446 29.1285 16.5957 29.1285 15.3866H31.8005V18.2334H32.2814V19.8414H31.4263V19.0769H28.9682V19.8414ZM30.037 16.2564C29.9728 17.1386 29.8215 17.7977 29.5828 18.2334H30.8118V16.2564H30.037ZM32.7842 15.3866H35.4775V16.2301H33.7729V16.7941H35.3172V17.6324H33.7729V18.2334H35.5095V19.0769H32.7842V15.3866ZM36.0822 15.3866H37.771C38.1913 15.3866 38.5137 15.464 38.7382 15.6186C38.9661 15.7732 39.0801 16.0069 39.0801 16.3197C39.0801 16.724 38.8949 16.9911 38.5244 17.1211C38.9947 17.2581 39.2298 17.5621 39.2298 18.0331C39.2298 18.2334 39.1852 18.4057 39.0962 18.5497C39.0072 18.6903 38.8843 18.7975 38.7274 18.8714C38.5743 18.9451 38.4139 18.9978 38.2465 19.0295C38.0827 19.0611 37.9028 19.0769 37.7067 19.0769H36.0822V15.3866ZM37.7389 18.3124C38.0702 18.3124 38.2359 18.1841 38.2359 17.9277C38.2359 17.6711 38.0702 17.5428 37.7389 17.5428H37.0655V18.3124H37.7389ZM37.9793 16.7468C38.0542 16.6835 38.0916 16.5992 38.0916 16.4937C38.0916 16.3883 38.0542 16.3057 37.9793 16.246C37.9081 16.1828 37.8084 16.1511 37.6801 16.1511H37.0709V16.8311L37.6801 16.8364C37.8084 16.8364 37.9081 16.8064 37.9793 16.7468ZM39.7353 15.3866H42.4284V16.2301H40.7238V16.7941H42.2681V17.6324H40.7238V18.2334H42.4606V19.0769H39.7353V15.3866ZM43.6585 15.3866H46.3572V19.0769H45.3686V16.2564H44.5616C44.5403 16.5481 44.5172 16.796 44.4922 16.9998C44.4673 17.2037 44.4334 17.4268 44.3907 17.6694C44.348 17.9083 44.2945 18.1069 44.2304 18.2651C44.1663 18.4197 44.0861 18.5674 43.9899 18.7078C43.8973 18.8484 43.7833 18.9538 43.6479 19.0241C43.5126 19.0909 43.3576 19.1243 43.1829 19.1243C43.0298 19.1243 42.8766 19.0997 42.7235 19.0506V18.2018C42.8018 18.2264 42.8872 18.2334 42.9799 18.2229C43.0619 18.2158 43.1349 18.1789 43.199 18.1121C43.2666 18.0454 43.3219 17.9488 43.3647 17.8221C43.4075 17.6957 43.443 17.5674 43.4716 17.4374C43.5035 17.3074 43.5285 17.1438 43.5464 16.9471C43.5678 16.7503 43.582 16.5798 43.5891 16.4357C43.5998 16.2881 43.6122 16.1054 43.6266 15.8875C43.6408 15.666 43.6515 15.4991 43.6585 15.3866ZM47.3987 18.6024C47.0496 18.2334 46.8751 17.7766 46.8751 17.2318C46.8751 16.6871 47.0496 16.2301 47.3987 15.8611C47.7479 15.4921 48.2413 15.3076 48.879 15.3076C49.5166 15.3076 50.01 15.4921 50.3592 15.8611C50.7082 16.2301 50.8829 16.6871 50.8829 17.2318C50.8829 17.7766 50.7082 18.2334 50.3592 18.6024C50.01 18.9715 49.5166 19.156 48.879 19.156C48.2413 19.156 47.7479 18.9715 47.3987 18.6024ZM49.6057 17.9751C49.7802 17.7854 49.8675 17.5375 49.8675 17.2318C49.8675 16.926 49.7802 16.6783 49.6057 16.4884C49.4346 16.2986 49.1924 16.2038 48.879 16.2038C48.5654 16.2038 48.3215 16.2986 48.1468 16.4884C47.9759 16.6783 47.8903 16.926 47.8903 17.2318C47.8903 17.5375 47.9759 17.7854 48.1468 17.9751C48.3215 18.1649 48.5654 18.2598 48.879 18.2598C49.1924 18.2598 49.4346 18.1649 49.6057 17.9751ZM52.3873 19.0769H51.3986V15.3866H54.7651V19.0769H53.7766V16.2564H52.3873V19.0769ZM58.6806 15.3866H59.6158V19.0769H58.6273V17.1158L57.8257 18.3283H57.2592L56.4576 17.1104V19.0769H55.4691V15.3866H56.4043L57.5425 17.1158L58.6806 15.3866ZM60.3222 15.3866H63.0156V16.2301H61.3109V16.7941H62.8553V17.6324H61.3109V18.2334H63.0475V19.0769H60.3222V15.3866ZM65.9983 15.3866H66.9869V19.0769H65.9983V17.6694H64.609V19.0769H63.6203V15.3866H64.609V16.7995H65.9983V15.3866ZM67.4076 15.3866H70.507V16.2564H69.4543V19.0769H68.4657V16.2564H67.4076V15.3866Z" fill="#131313"/>
</g>
</g>
<defs>
<clipPath id="clip0_199_5861">
<rect width="80" height="20" fill="white"/>
</clipPath>
</defs>
</svg>
